<?xml version="1.0" encoding="UTF-8"?>
<svg width="18px" height="18px" viewBox="0 0 18 18" version="1.1" xmlns="http://www.w3.org/2000/svg" xmlns:xlink="http://www.w3.org/1999/xlink">
    <!-- Generator: Sketch 54.1 (76490) - https://sketchapp.com -->
    <title>icons8-github</title>
    <desc>Created with Sketch.</desc>
    <g id="Landing-page" stroke="none" stroke-width="1" fill="none" fill-rule="evenodd">
        <g id="Landing-Page" transform="translate(-1113.000000, -5006.000000)" fill="#6F6F6F">
            <g id="Group-6" transform="translate(-1.000000, 4968.000000)">
                <g id="icons8-github" transform="translate(1114.000000, 38.000000)">
                    <path d="M9,0 C4.0283205,0 0,4.13007986 0,9.2273489 C0,13.3033619 2.578125,16.7636177 6.15527325,17.983118 C6.6064455,18.0672214 6.770508,17.7848738 6.770508,17.5385712 C6.770508,17.3193017 6.76171875,16.7395882 6.75878925,15.9706424 C4.25390625,16.5263264 3.7265625,14.7331204 3.7265625,14.7331204 C3.31640625,13.6668095 2.72753925,13.3814583 2.72753925,13.3814583 C1.91015625,12.810756 2.7890625,12.8227708 2.7890625,12.8227708 C3.69140625,12.8888524 4.166016,13.7719382 4.166016,13.7719382 C4.96875,15.1836749 6.27246075,14.7751725 6.78515625,14.5408839 C6.8671875,13.9431493 7.1015625,13.5376504 7.3564455,13.3063661 C5.35839825,13.0750811 3.2578125,12.2821058 3.2578125,8.74675781 C3.2578125,7.73751653 3.609375,6.91450467 4.18359375,6.2687102 C4.09277325,6.03742593 3.78222675,5.09726904 4.27148475,3.82670693 C4.27148475,3.82670693 5.02734375,3.58040361 6.7470705,4.77287006 C7.46484375,4.56861884 8.23535175,4.46649362 9,4.46349012 C9.76464825,4.46649362 10.5351562,4.56861884 11.2529295,4.77287006 C12.9726562,3.58040361 13.7255858,3.82670693 13.7255858,3.82670693 C14.2177733,5.09726904 13.9101562,6.03742593 13.8164062,6.2687102 C14.3935545,6.91450467 14.739258,7.73751653 14.739258,8.74675781 C14.739258,12.2911171 12.635742,13.0690741 10.6318358,13.3003584 C10.9541017,13.582706 11.2412108,14.1474006 11.2412108,15.0064567 C11.2412108,16.2409753 11.2324222,17.2351983 11.2324222,17.5385712 C11.2324222,17.7848738 11.3935545,18.0732284 11.8505858,17.983118 C15.4248045,16.7606142 18,13.3033619 18,9.2273489 C18,4.13007986 13.9716795,0 9,0 Z" id="Path"></path>
                </g>
            </g>
        </g>
    </g>
</svg>