<?xml version="1.0" encoding="UTF-8"?>
<svg width="37px" height="41px" viewBox="0 0 37 41" version="1.1" xmlns="http://www.w3.org/2000/svg" xmlns:xlink="http://www.w3.org/1999/xlink">
    <!-- Generator: sketchtool 54.1 (76490) - https://sketchapp.com -->
    <title>D61387AD-0FF4-4A50-B85C-6372B0D4B487</title>
    <desc>Created with sketchtool.</desc>
    <g id="Landing-page" stroke="none" stroke-width="1" fill="none" fill-rule="evenodd">
        <g id="Landing-Page" transform="translate(-329.000000, -1642.000000)" fill="#453CFF" fill-rule="nonzero">
            <g id="interaction" transform="translate(329.000000, 1642.000000)">
                <path d="M8.76315789,9.73684211 C11.4519126,9.73684211 13.6315789,7.55717576 13.6315789,4.86842105 C13.6315789,2.17966635 11.4519126,3.08859037e-16 8.76315789,0 C6.07440319,-3.08859037e-16 3.89473684,2.17966635 3.89473684,4.86842105 C3.897803,7.55590469 6.07567426,9.73377595 8.76315789,9.73684211 L8.76315789,9.73684211 Z M8.76315789,1.39097744 C10.683697,1.39097744 12.2406015,2.94788198 12.2406015,4.86842105 C12.2406015,6.78896013 10.683697,8.34586466 8.76315789,8.34586466 C6.84261882,8.34586466 5.28571429,6.78896013 5.28571429,4.86842105 C5.28801365,2.94883521 6.84357206,1.39327681 8.76315789,1.39097744 Z" id="Shape"></path>
                <path d="M3.58210931,7.78947368 L3.07047571,8.0827133 C1.17578485,9.16715315 0.00419853188,11.1878917 0,13.3786344 L0,17.4420009 C0,18.5640686 0.905399868,19.4736842 2.02226721,19.4736842 L15.5040486,19.4736842 C16.6209159,19.4736842 17.5263158,18.5640686 17.5263158,17.4420009 L17.5263158,13.3786344 C17.5221173,11.1878917 16.3505309,9.16715315 14.4558401,8.0827133 L13.9442065,7.78947368 L13.5862652,8.26353312 C12.4429357,9.78132175 10.6577768,10.6732046 8.76315789,10.6732046 C6.86853902,10.6732046 5.08338005,9.78132175 3.94005061,8.26353312 L3.58210931,7.78947368 Z M8.76315789,12.0241789 C10.8600304,12.0302586 12.8595863,11.1359779 14.258332,9.56651932 C15.4629631,10.4601601 16.1750923,11.8742191 16.1781377,13.3786344 L16.1781377,17.4420009 C16.1781377,17.8160235 15.8763377,18.1192287 15.5040486,18.1192287 L2.02226721,18.1192287 C1.64997809,18.1192287 1.34817814,17.8160235 1.34817814,17.4420009 L1.34817814,13.3786344 C1.35122352,11.8742191 2.06335272,10.4601601 3.26798381,9.56651932 C4.66672949,11.1359779 6.66628543,12.0302586 8.76315789,12.0241789 Z" id="Shape"></path>
                <path d="M17.5263158,36.1941924 C17.5292762,38.7890042 19.6320485,40.8917764 22.2268603,40.8947368 L32.2994555,40.8947368 C34.8942673,40.8917764 36.9970396,38.7890042 37,36.1941924 L37,26.1215971 C36.9970396,23.5267853 34.8942673,21.4240131 32.2994555,21.4210526 L22.2268603,21.4210526 C19.6320485,21.4240131 17.5292762,23.5267853 17.5263158,26.1215971 L17.5263158,36.1941924 Z M35.6569873,36.1941924 C35.6547672,38.0475856 34.1528488,39.5495041 32.2994555,39.5517241 L22.2268603,39.5517241 C20.373467,39.5495041 18.8715486,38.0475856 18.8693285,36.1941924 L18.8693285,28.1361162 L35.6569873,28.1361162 L35.6569873,36.1941924 Z M18.8693285,26.1215971 C18.8715486,24.2682039 20.373467,22.7662854 22.2268603,22.7640653 L32.2994555,22.7640653 C34.1528488,22.7662854 35.6547672,24.2682039 35.6569873,26.1215971 L35.6569873,26.7931034 L18.8693285,26.7931034 L18.8693285,26.1215971 Z" id="Shape"></path>
                <path d="M21.2794386,24.4832895 C21.0883563,24.2943128 20.7799443,24.2951534 20.5899009,24.4851688 C20.3998576,24.6751843 20.3998576,24.9827105 20.5899009,25.1727259 C20.7799443,25.3627414 21.0883563,25.363582 21.2794386,25.1746053 C21.3235745,25.1280597 21.3583767,25.0735277 21.3819703,25.0139474 C21.4340801,24.8960867 21.4340801,24.7618081 21.3819703,24.6439474 C21.3595615,24.5837724 21.3246164,24.5290166 21.2794386,24.4832895 L21.2794386,24.4832895 Z" id="Path"></path>
                <path d="M23.7567758,24.3508788 C23.7263588,24.3561845 23.6969065,24.3660406 23.669402,24.3801183 C23.6383489,24.3908604 23.6088159,24.4056032 23.5815428,24.4239775 C23.5563599,24.442092 23.5322129,24.4616159 23.5092168,24.4824564 C23.3214892,24.674626 23.3214892,24.9822875 23.5092168,25.1744571 L23.5815428,25.232936 C23.6088159,25.2513103 23.6383489,25.2660531 23.669402,25.2767952 C23.6969065,25.2908729 23.7263588,25.300729 23.7567758,25.3060347 C23.7888805,25.311478 23.8213152,25.3147343 23.8538578,25.3157812 C24.0510629,25.3169325 24.2293613,25.198188 24.3049837,25.0153367 C24.3806062,24.8324854 24.3385202,24.6218753 24.1984989,24.4824564 C24.081026,24.3696189 23.9165384,24.3206224 23.7567758,24.3508788 L23.7567758,24.3508788 Z" id="Path"></path>
                <path d="M26.5904547,24.3802167 C26.5310496,24.4037632 26.476678,24.4384961 26.4302694,24.482544 C26.2425418,24.6746934 26.2425418,24.9823225 26.4302694,25.174472 C26.476678,25.2185199 26.5310496,25.2532528 26.5904547,25.2767993 C26.6488118,25.3017677 26.7114784,25.3150113 26.7749105,25.3157812 C26.9721156,25.3169324 27.1504139,25.1982003 27.2260364,25.0153682 C27.3016588,24.8325362 27.2595729,24.6219482 27.1195515,24.482544 C26.9799667,24.3442829 26.7712199,24.3039113 26.5904547,24.3802167 Z" id="Path"></path>
                <path d="M27.456927,16.4147784 L29.9680923,18.5 L32.1315789,16.0796773 L31.9843513,14.1696676 L30.3828181,15.9570956 C29.125572,10.0751161 23.7572162,5.85150493 17.5263158,5.84210526 L17.5263158,7.17451524 C22.9597516,7.18205107 27.6814508,10.7739748 28.9513226,15.8658255 L27.3096994,14.5027701 L27.456927,16.4147784 Z" id="Path"></path>
                <path d="M5.64833611,24.4799584 L3.1371709,22.3947368 L0.973684211,24.8150596 L1.1209119,26.7250693 L2.72244501,24.9376413 C3.9796912,30.8196207 9.348047,35.0432319 15.5789474,35.0526316 L15.5789474,33.7202216 C10.1455116,33.7126858 5.42381234,30.1207621 4.15394052,25.0289114 L5.7955638,26.3919668 L5.64833611,24.4799584 Z" id="Path"></path>
            </g>
        </g>
    </g>
</svg>