<?xml version="1.0" encoding="UTF-8"?>
<svg width="30px" height="29px" viewBox="0 0 30 29" version="1.1" xmlns="http://www.w3.org/2000/svg" xmlns:xlink="http://www.w3.org/1999/xlink">
    <!-- Generator: sketchtool 54.1 (76490) - https://sketchapp.com -->
    <title>B6BDC270-F04E-4013-BB46-FAD41A7B20F1</title>
    <desc>Created with sketchtool.</desc>
    <g id="Landing-page" stroke="none" stroke-width="1" fill="none" fill-rule="evenodd">
        <g id="Landing-Page" transform="translate(-757.000000, -1395.000000)" fill="#453CFF" fill-rule="nonzero">
            <g id="layers" transform="translate(757.000000, 1395.000000)">
                <path d="M24.7285862,11.4912949 L30,8.48966268 L15.000273,0 L0,8.48966268 L5.27141375,11.4912949 L0,14.4744287 L5.27141375,17.4760609 L0,20.4591948 L15.000273,29 L30,20.4591948 L24.7285862,17.4760609 L30,14.4744287 L24.7285862,11.4912949 Z M15.000273,1.25136017 L27.793933,8.49238303 L15.000273,15.7774755 L2.206067,8.49238303 L15.000273,1.25136017 Z M6.37362837,12.1186072 L15.000273,17.0304679 L23.6269175,12.1186072 L27.793933,14.4771491 L15.000273,21.7622416 L2.206067,14.4771491 L6.37362837,12.1186072 Z M27.793933,20.4619151 L15.000273,27.7470076 L2.206067,20.4619151 L6.37362837,18.1033732 L15.000273,23.0152339 L23.6269175,18.1033732 L27.793933,20.4619151 Z" id="Shape"></path>
            </g>
        </g>
    </g>
</svg>