<?xml version="1.0" encoding="UTF-8"?>
<svg width="20px" height="18px" viewBox="0 0 20 18" version="1.1" xmlns="http://www.w3.org/2000/svg" xmlns:xlink="http://www.w3.org/1999/xlink">
    <!-- Generator: Sketch 54.1 (76490) - https://sketchapp.com -->
    <title>icons8-medium_logo_filled</title>
    <desc>Created with Sketch.</desc>
    <g id="Landing-page" stroke="none" stroke-width="1" fill="none" fill-rule="evenodd">
        <g id="Landing-Page" transform="translate(-969.000000, -5003.000000)" fill="#6F6F6F" fill-rule="nonzero">
            <g id="Group-6" transform="translate(-1.000000, 4968.000000)">
                <g id="icons8-medium_logo_filled" transform="translate(970.000000, 35.000000)">
                    <path d="M6.66666667,16.4657738 C6.66666667,16.889881 6.43973238,17.1428571 6.11793143,17.1428571 C6.00446429,17.1428571 5.87797619,17.1112352 5.74404762,17.044271 L0.554315714,14.4159229 C0.24925619,14.2615329 0,13.8523067 0,13.5081848 L0,0.625 C0,0.284598095 0.180431429,0.0837052381 0.438988095,0.0837052381 C0.53013381,0.0837052381 0.632440476,0.107887143 0.738467143,0.161830476 L0.920759048,0.25483619 C0.920759048,0.25483619 0.922619048,0.25483619 0.922619048,0.25483619 L6.64248524,3.1510419 C6.65178571,3.1566219 6.65922619,3.16592286 6.66666667,3.17336333 L6.66666667,16.4657738 Z M12.6599705,0.896577619 L13.0096729,0.321800476 C13.1343005,0.117187619 13.3630952,0 13.59561,0 C13.6495538,0 13.7053571,0.00744047619 13.7593005,0.0223214286 C13.8002233,0.0316219048 13.8430062,0.0465028571 13.887649,0.0688242857 L19.9200148,3.12314 C19.9218752,3.12314 19.9218752,3.125 19.9218752,3.125 L19.9274552,3.12686 C19.9311757,3.12872048 19.9311757,3.13430048 19.9348957,3.13616095 C19.9646576,3.16034238 19.9776786,3.20126476 19.9572171,3.23474714 L13.9490329,13.12314 L13.3351933,14.1313243 L9.35453857,6.33556571 L12.6599705,0.896577619 Z M7.61904762,11.2406995 L7.61904762,5.0297619 L11.8954614,13.4077381 L8.04873524,11.4601933 L7.61904762,11.2406995 Z M20,16.4657738 C20,16.8638395 19.7637648,17.0907738 19.4159229,17.0907738 C19.2596729,17.0907738 19.0811014,17.046131 18.893229,16.9512648 L18.0319943,16.5141371 L14.1852681,14.5665924 L20,4.99814 L20,16.4657738 Z" id="Shape"></path>
                </g>
            </g>
        </g>
    </g>
</svg>