<?xml version="1.0" encoding="UTF-8"?>
<svg width="42px" height="34px" viewBox="0 0 42 34" version="1.1" xmlns="http://www.w3.org/2000/svg" xmlns:xlink="http://www.w3.org/1999/xlink">
    <!-- Generator: sketchtool 54.1 (76490) - https://sketchapp.com -->
    <title>681999A8-C9E8-4CAB-9EFE-8E8F79369CEA</title>
    <desc>Created with sketchtool.</desc>
    <g id="Landing-page" stroke="none" stroke-width="1" fill="none" fill-rule="evenodd">
        <g id="Landing-Page" transform="translate(-757.000000, -1648.000000)" fill="#453CFF" fill-rule="nonzero">
            <g id="network" transform="translate(757.000000, 1648.000000)">
                <path d="M21.4883721,7.81395349 C16.6683966,7.81395349 13.6744186,10.1290356 13.6744186,13.8794687 C13.6744186,14.3056368 14.0427026,14.6511628 14.49694,14.6511628 L28.4798042,14.6511628 C28.9340416,14.6511628 29.3023256,14.3056368 29.3023256,13.8794687 C29.3023256,10.1367526 26.3083476,7.81395349 21.4883721,7.81395349 Z M15.3770379,13.1077747 C15.9199021,9.64286839 20.139437,9.35734159 21.4883721,9.35734159 C22.8373072,9.35734159 27.0568421,9.64286839 27.5997062,13.1077747 L15.3770379,13.1077747 Z" id="Shape"></path>
                <path d="M21.4883721,0 C19.33059,0 17.5813953,1.53054529 17.5813953,3.41860465 C17.5859192,5.30504468 19.3324406,6.83325092 21.4883721,6.8372093 C23.6461542,6.8372093 25.3953488,5.30666401 25.3953488,3.41860465 C25.3953488,1.53054529 23.6461542,0 21.4883721,0 Z M21.4883721,5.39779682 C20.2391677,5.39779682 19.2264382,4.51165851 19.2264382,3.41860465 C19.2264382,2.3255508 20.2391677,1.43941248 21.4883721,1.43941248 C22.7375765,1.43941248 23.750306,2.3255508 23.750306,3.41860465 C23.750306,4.51165851 22.7375765,5.39779682 21.4883721,5.39779682 Z" id="Shape"></path>
                <path d="M7.81395349,26.372093 C2.99397797,26.372093 0,28.6871752 0,32.4376083 C0,32.8637763 0.368283966,33.2093023 0.82252142,33.2093023 L14.8053856,33.2093023 C15.259623,33.2093023 15.627907,32.8637763 15.627907,32.4376083 C15.627907,28.6948921 12.633929,26.372093 7.81395349,26.372093 Z M1.70261934,31.6659142 C2.24548348,28.2010079 6.45679315,27.9154811 7.81395349,27.9154811 C9.17111383,27.9154811 13.3824235,28.2010079 13.9252876,31.6659142 L1.70261934,31.6659142 Z" id="Shape"></path>
                <path d="M7.81395349,18.5581395 C5.65617136,18.5581395 3.90697674,20.0886848 3.90697674,21.9767442 C3.91150061,23.8631842 5.65802203,25.3913905 7.81395349,25.3953488 C9.97173562,25.3953488 11.7209302,23.8648035 11.7209302,21.9767442 C11.7209302,20.0886848 9.97173562,18.5581395 7.81395349,18.5581395 Z M7.81395349,23.9559364 C6.56474908,23.9559364 5.55201958,23.069798 5.55201958,21.9767442 C5.55201958,20.8836903 6.56474908,19.997552 7.81395349,19.997552 C9.06315789,19.997552 10.0758874,20.8836903 10.0758874,21.9767442 C10.0758874,23.069798 9.06315789,23.9559364 7.81395349,23.9559364 Z" id="Shape"></path>
                <path d="M34.1860465,26.372093 C29.366071,26.372093 26.372093,28.6871752 26.372093,32.4376083 C26.372093,32.8637763 26.740377,33.2093023 27.1946144,33.2093023 L41.1774786,33.2093023 C41.631716,33.2093023 42,32.8637763 42,32.4376083 C42,28.6948921 39.006022,26.372093 34.1860465,26.372093 Z M28.0747124,31.6659142 C28.6175765,28.2010079 32.8288862,27.9154811 34.1860465,27.9154811 C35.5432069,27.9154811 39.7545165,28.2010079 40.2973807,31.6659142 L28.0747124,31.6659142 Z" id="Shape"></path>
                <path d="M34.1860465,18.5581395 C32.0282644,18.5581395 30.2790698,20.0886848 30.2790698,21.9767442 C30.2835936,23.8631842 32.0301151,25.3913905 34.1860465,25.3953488 C36.3438286,25.3953488 38.0930233,23.8648035 38.0930233,21.9767442 C38.0930233,20.0886848 36.3438286,18.5581395 34.1860465,18.5581395 Z M34.1860465,23.9559364 C32.9368421,23.9559364 31.9241126,23.069798 31.9241126,21.9767442 C31.9241126,20.8836903 32.9368421,19.997552 34.1860465,19.997552 C35.4352509,19.997552 36.4479804,20.8836903 36.4479804,21.9767442 C36.4479804,23.069798 35.4352509,23.9559364 34.1860465,23.9559364 Z" id="Shape"></path>
                <path d="M25.2010503,25.0744239 L21.8316938,21.8743925 L21.8316938,17.3683818 C21.8316938,16.9466116 21.4699122,16.6046512 21.0236946,16.6046512 C20.5774771,16.6046512 20.2156955,16.9466116 20.2156955,17.3683818 L20.2156955,21.8743925 L16.846339,25.0591493 C16.5272803,25.3565269 16.5236443,25.8420686 16.838259,26.1436468 C17.1528737,26.4452249 17.6665591,26.4486617 17.9856178,26.1512841 L21.0236946,23.2720196 L24.0617715,26.1512841 C24.4007271,26.4256543 24.9107766,26.388327 25.2010503,26.067942 C25.460115,25.7820203 25.460115,25.3603455 25.2010503,25.0744239 Z" id="Path"></path>
            </g>
        </g>
    </g>
</svg>