<?xml version="1.0" encoding="UTF-8"?>
<svg width="35px" height="35px" viewBox="0 0 35 35" version="1.1" xmlns="http://www.w3.org/2000/svg" xmlns:xlink="http://www.w3.org/1999/xlink">
    <!-- Generator: sketchtool 54.1 (76490) - https://sketchapp.com -->
    <title>8F4403E4-067F-44E4-A2FE-6DC1E94C41C2</title>
    <desc>Created with sketchtool.</desc>
    <g id="Landing-page" stroke="none" stroke-width="1" fill="none" fill-rule="evenodd">
        <g id="Landing-Page" transform="translate(-329.000000, -1390.000000)" fill-rule="nonzero">
            <g id="transparency" transform="translate(329.000000, 1390.000000)">
                <path d="M34.473692,24.9039078 C34.1036012,24.8144531 33.7300064,25.0390243 33.6397075,25.4056549 C32.4453362,30.2498245 28.0905035,33.6330795 23.0493993,33.6330795 C17.5516791,33.6330795 12.9922588,29.5801163 12.2536947,24.3321991 C12.2628594,24.3321991 12.2720241,24.3324661 12.2811887,24.3324661 C19.0527972,24.3324661 24.5621079,18.8746643 24.5621079,12.1663665 C24.5621079,12.1567536 24.5618383,12.1474075 24.5618383,12.1380615 C28.9263747,12.7370072 32.546417,15.8940887 33.6305429,20.225029 C33.7221895,20.5913925 34.0963235,20.8146286 34.4661445,20.7238388 C34.8359657,20.633049 35.0615782,20.262413 34.9699315,19.8960495 C34.3213968,17.30587 32.7952107,14.9613571 30.6722433,13.2945633 C28.8606049,11.8718338 26.7419501,11.0050583 24.4782782,10.7484436 C23.7669385,4.7055817 18.5686873,0 12.2811887,0 C5.50931077,0 0,5.45780184 0,12.1663665 C0,18.3958817 4.75106955,23.5460662 10.8517707,24.2496872 C11.5623017,30.2933503 16.7610921,35 23.0493993,35 C25.8554037,35 28.4969833,34.0872956 30.6886857,32.3601532 C32.8148878,30.6848145 34.3389174,28.3301545 34.9801744,25.7300949 C35.0704733,25.3634644 34.8437826,24.9933625 34.473692,24.9039078 L34.473692,24.9039078 Z M23.1822869,12.1663665 C23.1822869,18.120842 18.2921301,22.9655457 12.2811887,22.9655457 C12.2372523,22.9655457 12.1935853,22.9644775 12.1496488,22.9639435 C12.1491098,22.9204178 12.1480316,22.8771591 12.1480316,22.8336335 C12.1480316,16.879158 17.038458,12.0344543 23.0493993,12.0344543 C23.0930662,12.0344543 23.1367331,12.0352554 23.1806696,12.0357895 C23.1812087,12.0793152 23.1822869,12.1225739 23.1822869,12.1663665 Z M1.37982103,12.1663665 C1.37982103,6.21162418 6.26997784,1.36692049 12.2811887,1.36692049 C17.7789089,1.36692049 22.3380596,5.41988371 23.0768932,10.6678009 C23.0677286,10.6678009 23.0585639,10.6675339 23.0493993,10.6675339 C16.2775213,10.6675339 10.7682105,16.1253357 10.7682105,22.8336335 C10.7682105,22.8429794 10.7687497,22.8517913 10.7687497,22.8611374 C5.47103479,22.1294784 1.37982103,17.6126862 1.37982103,12.1663665 Z" id="Shape" fill="#453CFF"></path>
                <path d="M34.8536823,22.146513 C34.7605001,22.05294 34.6321547,22 34.5000977,22 C34.3686267,22 34.2394999,22.05294 34.146513,22.146513 C34.0535261,22.2394999 34,22.3680406 34,22.4999023 C34,22.6315686 34.0535261,22.759914 34.146513,22.853487 C34.2394999,22.9464739 34.3686267,23 34.5000977,23 C34.6321547,23 34.7605001,22.9464739 34.8536823,22.853487 C34.94706,22.759914 35,22.6315686 35,22.4999023 C35,22.3680406 34.94706,22.2394999 34.8536823,22.146513 Z" id="Path" fill="#000000"></path>
            </g>
        </g>
    </g>
</svg>