<?xml version="1.0" encoding="UTF-8"?>
<svg width="21px" height="16px" viewBox="0 0 21 16" version="1.1" xmlns="http://www.w3.org/2000/svg" xmlns:xlink="http://www.w3.org/1999/xlink">
    <!-- Generator: sketchtool 54.1 (76490) - https://sketchapp.com -->
    <title>6E0FF4EB-7E30-4D06-B5C2-CF31B602A9E4</title>
    <desc>Created with sketchtool.</desc>
    <g id="Landing-page" stroke="none" stroke-width="1" fill="none" fill-rule="evenodd">
        <g id="Landing-Page" transform="translate(-1109.000000, -3951.000000)" fill="#6F6F6F">
            <g id="twitter" transform="translate(1109.000000, 3951.000000)">
                <path d="M21.008,1.896 C20.235,2.218 19.404,2.433 18.533,2.531 C19.423,2.031 20.106,1.239 20.428,0.297 C19.594,0.759 18.672,1.095 17.69,1.277 C16.905,0.491 15.784,0.001 14.545,0.001 C12.165,0.001 10.234,1.81 10.234,4.04 C10.234,4.357 10.272,4.666 10.346,4.961 C6.764,4.792 3.588,3.184 1.462,0.741 C1.091,1.338 0.879,2.031 0.879,2.772 C0.879,4.172 1.64,5.41 2.796,6.134 C2.09,6.112 1.426,5.931 0.844,5.628 L0.844,5.68 C0.844,7.637 2.329,9.269 4.301,9.64 C3.94,9.732 3.558,9.78 3.166,9.78 C2.888,9.78 2.618,9.756 2.355,9.71 C2.903,11.313 4.495,12.482 6.381,12.515 C4.906,13.598 3.048,14.243 1.028,14.243 C0.68,14.243 0.337,14.224 0,14.187 C1.907,15.332 4.173,16.002 6.607,16.002 C14.535,16.002 18.87,9.846 18.87,4.509 C18.87,4.333 18.865,4.16 18.857,3.986 C19.699,3.416 20.43,2.705 21.008,1.896 L21.008,1.896 Z" id="Shape"></path>
            </g>
        </g>
    </g>
</svg>